<svg xmlns="http://www.w3.org/2000/svg" viewBox="0 0 900 420" width="900" height="420" fill="none">
  <!-- Background -->
  <rect width="900" height="420" fill="#050505"/>
  
  <!-- Title -->
  <text x="450" y="40" font-family="Arial, sans-serif" font-size="22" font-weight="bold" fill="white" text-anchor="middle">Srovnání Chunking Strategií</text>
  
  <!-- Card 1: Token-Based -->
  <rect x="25" y="70" width="200" height="320" rx="16" fill="#0d0d0d" stroke="#6b7280" stroke-width="2"/>
  <rect x="25" y="70" width="200" height="50" rx="16" fill="#6b7280" fill-opacity="0.2"/>
  <text x="125" y="102" font-family="Arial, sans-serif" font-size="14" font-weight="bold" fill="#9ca3af" text-anchor="middle">TOKENOVÁ</text>
  
  <!-- Token visual -->
  <rect x="45" y="140" width="160" height="60" rx="8" fill="#1a1a1a" stroke="#6b7280" stroke-width="1"/>
  <rect x="55" y="150" width="45" height="12" rx="2" fill="#6b7280" fill-opacity="0.5"/>
  <rect x="105" y="150" width="45" height="12" rx="2" fill="#6b7280" fill-opacity="0.5"/>
  <rect x="55" y="168" width="45" height="12" rx="2" fill="#6b7280" fill-opacity="0.5"/>
  <rect x="105" y="168" width="45" height="12" rx="2" fill="#6b7280" fill-opacity="0.5"/>
  <rect x="155" y="168" width="35" height="12" rx="2" fill="#6b7280" fill-opacity="0.3"/>
  <line x1="150" y1="145" x2="150" y2="195" stroke="#ef4444" stroke-width="2" stroke-dasharray="4,2"/>
  
  <text x="125" y="225" font-family="Arial, sans-serif" font-size="11" fill="#888" text-anchor="middle">Pevný počet tokenů</text>
  
  <text x="45" y="260" font-family="Arial, sans-serif" font-size="11" fill="#22c55e">✓</text>
  <text x="60" y="260" font-family="Arial, sans-serif" font-size="10" fill="#888">Rychlé, jednoduché</text>
  
  <text x="45" y="285" font-family="Arial, sans-serif" font-size="11" fill="#ef4444">✗</text>
  <text x="60" y="285" font-family="Arial, sans-serif" font-size="10" fill="#888">Trhá myšlenky v půlce</text>
  
  <rect x="45" y="310" width="160" height="25" rx="6" fill="#6b7280" fill-opacity="0.15"/>
  <text x="125" y="327" font-family="Arial, sans-serif" font-size="10" fill="#9ca3af" text-anchor="middle">Pro: Jednoduché texty</text>
  
  <text x="125" y="365" font-family="Arial, sans-serif" font-size="12" font-weight="bold" fill="#6b7280" text-anchor="middle">BASIC</text>
  
  <!-- Card 2: Header-Based -->
  <rect x="240" y="70" width="200" height="320" rx="16" fill="#0d0d0d" stroke="#3b82f6" stroke-width="2"/>
  <rect x="240" y="70" width="200" height="50" rx="16" fill="#3b82f6" fill-opacity="0.2"/>
  <text x="340" y="102" font-family="Arial, sans-serif" font-size="14" font-weight="bold" fill="#60a5fa" text-anchor="middle">PODLE STRUKTURY</text>
  
  <!-- Header visual -->
  <rect x="260" y="140" width="160" height="60" rx="8" fill="#1a1a1a" stroke="#3b82f6" stroke-width="1"/>
  <rect x="270" y="148" width="80" height="10" rx="2" fill="#3b82f6" fill-opacity="0.7"/>
  <rect x="270" y="162" width="130" height="6" rx="1" fill="#3b82f6" fill-opacity="0.3"/>
  <rect x="270" y="172" width="120" height="6" rx="1" fill="#3b82f6" fill-opacity="0.3"/>
  <rect x="270" y="182" width="100" height="6" rx="1" fill="#3b82f6" fill-opacity="0.3"/>
  
  <text x="340" y="225" font-family="Arial, sans-serif" font-size="11" fill="#888" text-anchor="middle">Respektuje nadpisy</text>
  
  <text x="260" y="260" font-family="Arial, sans-serif" font-size="11" fill="#22c55e">✓</text>
  <text x="275" y="260" font-family="Arial, sans-serif" font-size="10" fill="#888">Drží témata pohromadě</text>
  
  <text x="260" y="285" font-family="Arial, sans-serif" font-size="11" fill="#ef4444">✗</text>
  <text x="275" y="285" font-family="Arial, sans-serif" font-size="10" fill="#888">Vyžaduje strukturu</text>
  
  <rect x="260" y="310" width="160" height="25" rx="6" fill="#3b82f6" fill-opacity="0.15"/>
  <text x="340" y="327" font-family="Arial, sans-serif" font-size="10" fill="#60a5fa" text-anchor="middle">Pro: Dokumentace, wiki</text>
  
  <text x="340" y="365" font-family="Arial, sans-serif" font-size="12" font-weight="bold" fill="#3b82f6" text-anchor="middle">STANDARD</text>
  
  <!-- Card 3: Semantic -->
  <rect x="455" y="70" width="200" height="320" rx="16" fill="#0d0d0d" stroke="#8b5cf6" stroke-width="2"/>
  <rect x="455" y="70" width="200" height="50" rx="16" fill="#8b5cf6" fill-opacity="0.2"/>
  <text x="555" y="102" font-family="Arial, sans-serif" font-size="14" font-weight="bold" fill="#a78bfa" text-anchor="middle">SÉMANTICKÁ</text>
  
  <!-- Semantic visual -->
  <rect x="475" y="140" width="160" height="60" rx="8" fill="#1a1a1a" stroke="#8b5cf6" stroke-width="1"/>
  <ellipse cx="510" cy="165" rx="25" ry="15" fill="#8b5cf6" fill-opacity="0.3" stroke="#8b5cf6" stroke-width="1"/>
  <ellipse cx="555" cy="175" rx="30" ry="18" fill="#8b5cf6" fill-opacity="0.3" stroke="#8b5cf6" stroke-width="1"/>
  <ellipse cx="605" cy="160" rx="20" ry="12" fill="#8b5cf6" fill-opacity="0.3" stroke="#8b5cf6" stroke-width="1"/>
  
  <text x="555" y="225" font-family="Arial, sans-serif" font-size="11" fill="#888" text-anchor="middle">AI rozpozná myšlenky</text>
  
  <text x="475" y="260" font-family="Arial, sans-serif" font-size="11" fill="#22c55e">✓</text>
  <text x="490" y="260" font-family="Arial, sans-serif" font-size="10" fill="#888">Zachovává kontext</text>
  
  <text x="475" y="285" font-family="Arial, sans-serif" font-size="11" fill="#ef4444">✗</text>
  <text x="490" y="285" font-family="Arial, sans-serif" font-size="10" fill="#888">Vyšší náročnost</text>
  
  <rect x="475" y="310" width="160" height="25" rx="6" fill="#8b5cf6" fill-opacity="0.15"/>
  <text x="555" y="327" font-family="Arial, sans-serif" font-size="10" fill="#a78bfa" text-anchor="middle">Pro: Články, blogy</text>
  
  <text x="555" y="365" font-family="Arial, sans-serif" font-size="12" font-weight="bold" fill="#8b5cf6" text-anchor="middle">SMART</text>
  
  <!-- Card 4: Agentic (highlighted) -->
  <rect x="670" y="65" width="210" height="330" rx="16" fill="#0d0d0d" stroke="#00A39A" stroke-width="3"/>
  <rect x="670" y="65" width="210" height="55" rx="16" fill="#00A39A" fill-opacity="0.25"/>
  <text x="775" y="97" font-family="Arial, sans-serif" font-size="14" font-weight="bold" fill="#00C4B4" text-anchor="middle">AGENTNÍ / LLM</text>
  <text x="860" y="87" font-family="Arial, sans-serif" font-size="16" fill="#fbbf24">⭐</text>
  
  <!-- Agentic visual -->
  <rect x="695" y="140" width="160" height="60" rx="8" fill="#1a1a1a" stroke="#00A39A" stroke-width="1"/>
  <circle cx="730" cy="170" r="12" fill="#00A39A" fill-opacity="0.3" stroke="#00A39A" stroke-width="1"/>
  <text x="730" y="174" font-family="Arial, sans-serif" font-size="10" fill="#00C4B4" text-anchor="middle">AI</text>
  <path d="M 745 165 L 765 155 M 745 175 L 765 180 M 745 170 L 770 170" stroke="#00A39A" stroke-width="1.5"/>
  <rect x="775" y="150" width="60" height="12" rx="2" fill="#00A39A" fill-opacity="0.4"/>
  <rect x="775" y="167" width="55" height="12" rx="2" fill="#00A39A" fill-opacity="0.4"/>
  <rect x="775" y="184" width="50" height="10" rx="2" fill="#00A39A" fill-opacity="0.4"/>
  
  <text x="775" y="225" font-family="Arial, sans-serif" font-size="11" fill="#888" text-anchor="middle">AI sama rozhoduje</text>
  
  <text x="695" y="260" font-family="Arial, sans-serif" font-size="11" fill="#22c55e">✓</text>
  <text x="710" y="260" font-family="Arial, sans-serif" font-size="10" fill="#888">Nejvyšší přesnost</text>
  
  <text x="695" y="285" font-family="Arial, sans-serif" font-size="11" fill="#ef4444">✗</text>
  <text x="710" y="285" font-family="Arial, sans-serif" font-size="10" fill="#888">Nejdražší (API calls)</text>
  
  <rect x="695" y="310" width="160" height="25" rx="6" fill="#00A39A" fill-opacity="0.2"/>
  <text x="775" y="327" font-family="Arial, sans-serif" font-size="10" fill="#00C4B4" text-anchor="middle">Pro: Komplexní projekty</text>
  
  <rect x="720" y="355" width="110" height="28" rx="8" fill="#00A39A"/>
  <text x="775" y="374" font-family="Arial, sans-serif" font-size="12" font-weight="bold" fill="white" text-anchor="middle">DOPORUČENO</text>
</svg>
